<svg width="808" height="886" viewBox="0 0 808 886" fill="none" xmlns="http://www.w3.org/2000/svg">
<path d="M406.48 292.41L513.11 295.22" stroke="#FD8369" stroke-width="8" stroke-miterlimit="10" stroke-linecap="round"/>
<path d="M0.851562 530.36V708.09L159.682 796.25L423.672 726.28L426.972 545.76L247.262 466.02L0.851562 530.36Z" fill="#FD8369"/>
<path d="M293.359 462.65C298.359 456.95 431.629 512.05 450.619 538.53C469.609 565.01 337.629 765 283.919 804.85C277.919 800.74 263.379 790.32 263.379 790.32C263.379 790.32 308.559 651.62 349.629 604.86C339.209 602.02 305.399 593.17 305.399 593.17L268.329 477.17C274.219 474.72 286.799 470.12 293.359 462.65Z" fill="#56CAD8"/>
<path d="M268.33 477.16L450.62 850.31L424.21 861.31C424.21 861.31 289.75 692.2 285.42 679.59C277.53 674.85 148.09 572.52 133.5 498.83C154.21 502.48 233.64 495 268.33 477.16Z" fill="#74D5DE"/>
<path d="M336.199 265.72C346.939 273.44 358.729 289.09 364.849 343.06C375.699 338.06 438.569 308 438.569 308C438.569 308 453.869 316.63 450.809 320.8C447.749 324.97 374.309 400.64 352.609 405.37C335.609 409.27 292.799 352.79 291.689 346.67C290.579 340.55 310.599 274.34 310.599 274.34L336.199 265.72Z" fill="#DE8E68"/>
<path d="M475.446 308.991C481.678 295.681 477.781 280.702 466.743 275.533C455.704 270.365 441.703 276.964 435.471 290.274C429.239 303.583 433.136 318.563 444.175 323.732C455.214 328.9 469.214 322.301 475.446 308.991Z" fill="#DE8E68"/>
<path d="M251.001 198.52C284.001 174.86 355.741 245.63 354.001 258.86C352.261 272.09 311.661 324.46 284.821 311.75C257.981 299.04 227.541 215.31 251.001 198.52Z" fill="#FCC486"/>
<path d="M215 167.39C80.9201 167.39 111.32 475.09 126.67 492.51C162.53 512.43 277.77 484.4 293.38 462.65C305.8 444.82 337 167.39 215 167.39Z" fill="#FED385"/>
<path d="M78.7789 272.63C71.0389 283.24 34.229 378.63 43.509 405.93C59.869 453.93 172.919 542.69 172.919 542.69C174.919 534.69 179.809 511.69 179.809 511.69C179.809 511.69 102.609 404.35 98.5889 396.31C104.899 386.55 132.449 332.6 135.039 304.47C137.629 276.34 78.7789 272.63 78.7789 272.63Z" fill="#DE8E68"/>
<path d="M234 188.06C234 197.92 191.07 197.34 191.07 188.06V125.21H234V188.06Z" fill="#D37C59"/>
<path d="M230.385 162.386C252.771 161.964 270.412 134.755 269.787 101.612C269.162 68.4702 250.508 41.9452 228.123 42.3672C205.737 42.7892 188.096 69.9984 188.721 103.141C189.346 136.283 208 162.808 230.385 162.386Z" fill="#DE8E68"/>
<path d="M187.86 128.42C194.31 128.42 199.54 123.191 199.54 116.74C199.54 110.289 194.31 105.06 187.86 105.06C181.409 105.06 176.18 110.289 176.18 116.74C176.18 123.191 181.409 128.42 187.86 128.42Z" fill="#DE8E68"/>
<path d="M302.941 21.8799C302.941 7.47988 291.941 0.879883 282.941 0.879883C266.701 0.879883 257.621 13.8799 242.941 13.8799C227.171 13.8799 223.471 4.87988 206.941 4.87988C175.001 4.87988 178.271 37.7799 171.681 48.1399C163.391 61.1399 157.941 74.4599 157.941 83.8799C157.941 101.16 168.571 108.76 177.191 111.96C178.136 109.904 179.657 108.166 181.571 106.959C183.484 105.751 185.707 105.125 187.969 105.157C190.231 105.189 192.436 105.877 194.314 107.138C196.193 108.399 197.665 110.178 198.551 112.26C204.611 109.64 205.101 105.03 205.101 103.51C205.101 97.9999 199.171 88.5099 207.541 79.9099C214.601 72.6399 254.001 74.9999 261.001 66.6199C263.661 70.6199 266.271 78.9299 267.001 81.1999C268.974 81.6226 270.984 81.8504 273.001 81.8799C290.651 81.8799 297.001 72.8799 297.001 66.8799C297.001 57.8799 289.001 54.5499 289.001 48.8799C288.941 38.8399 302.941 40.0899 302.941 21.8799Z" fill="#FD8369"/>
<path d="M144.002 198.13C180.422 214.75 153.902 308.13 141.632 312.91C129.362 317.69 64.4516 308.16 62.4716 279.67C60.4916 251.18 118.182 186.33 144.002 198.13Z" fill="#FED892"/>
<path d="M423.672 860.29L448.462 849.9H499.952L503.252 858.4L434.062 885.56L423.672 860.29Z" fill="black"/>
<path d="M263.712 789.86L285.282 805.9L311.522 850.19L305.892 857.37L247.262 811.68L263.712 789.86Z" fill="black"/>
<path d="M804.551 325.19C809.551 341.57 767.601 344.96 765.221 337.12C762.841 329.28 799.231 307.67 804.551 325.19Z" fill="#74D5DE"/>
<path d="M798 367.45C805.84 382.66 765.22 393.56 761.47 386.28C757.72 379 789.56 351.17 798 367.45Z" fill="#74D5DE"/>
<path d="M800.372 417.05C808.212 432.26 767.602 443.16 763.842 435.88C760.082 428.6 792.002 400.77 800.372 417.05Z" fill="#74D5DE"/>
<path d="M801.921 463C809.051 476.83 773.611 486 770.201 479.35C766.791 472.7 794.291 448.21 801.921 463Z" fill="#74D5DE"/>
<path d="M806.379 514C813.509 527.83 778.069 537 774.659 530.35C771.249 523.7 798.739 499.2 806.379 514Z" fill="#74D5DE"/>
<path d="M696.281 710.15C697.491 704.54 756.061 662.74 769.931 598.07C792.531 492.66 744.991 427.24 761.131 351.94C764.131 337.71 775.131 293.15 801.611 279.89" stroke="#74D5DE" stroke-width="9" stroke-miterlimit="10" stroke-linecap="round"/>
<path d="M745.87 580.55C759.35 572.77 770.17 607.73 763.71 611.46C757.25 615.19 731.44 588.88 745.87 580.55Z" fill="#74D5DE"/>
<path d="M745.13 539.63C755.45 527.98 776.78 557.72 771.84 563.3C766.9 568.88 734.08 552.09 745.13 539.63Z" fill="#74D5DE"/>
<path d="M746.521 491.65C756.841 480 778.171 509.74 773.231 515.32C768.291 520.9 735.471 504.12 746.521 491.65Z" fill="#74D5DE"/>
<path d="M739.222 451.69C747.222 438.32 773.702 463.54 769.892 469.94C766.082 476.34 730.702 466 739.222 451.69Z" fill="#74D5DE"/>
<path d="M728.62 396.54C738.62 384.62 760.75 413.76 755.96 419.47C751.17 425.18 717.91 409.3 728.62 396.54Z" fill="#74D5DE"/>
<path d="M730.572 338C741.572 327.05 760.982 358.1 755.692 363.35C750.402 368.6 718.742 349.76 730.572 338Z" fill="#74D5DE"/>
<path d="M766 263.22C777 252.22 796.41 283.32 791.12 288.57C785.83 293.82 754.14 274.94 766 263.22Z" fill="#74D5DE"/>
<path d="M695.108 534.68C692.168 526.84 690.108 505.43 690.108 495.02C690.108 425.11 648.598 412.02 627.368 412.02C586.048 412.02 562.738 450.23 562.738 481.57C562.738 509.29 574.498 533.93 588.918 554.75C591.013 552.189 593.651 550.127 596.642 548.714C599.633 547.301 602.902 546.571 606.21 546.579C609.518 546.587 612.783 547.332 615.767 548.759C618.751 550.187 621.38 552.261 623.462 554.832C625.544 557.403 627.028 560.405 627.804 563.621C628.581 566.836 628.632 570.185 627.952 573.422C627.273 576.66 625.881 579.706 623.877 582.338C621.873 584.97 619.308 587.123 616.368 588.64C628.278 601.92 638.128 612.23 640.578 619.13C648.908 642.19 645.298 653.13 650.008 664.41C661.488 691.9 673.178 706.21 687.168 704.99C719.608 702.16 732.438 674.65 732.438 603.56C732.488 583.42 706.268 564.4 695.108 534.68Z" fill="#74D5DE"/>
<path opacity="0.5" d="M617.499 458.35L426.969 502.7V70.8L617.499 20.75V458.35Z" fill="#F7F7F7"/>
<path d="M748.179 842.07H659.749C657.737 842.071 655.775 841.438 654.143 840.26C652.512 839.082 651.292 837.42 650.659 835.51L606.71 702.19C606.235 700.753 606.108 699.225 606.339 697.729C606.57 696.234 607.153 694.815 608.039 693.589C608.926 692.363 610.09 691.365 611.438 690.676C612.785 689.988 614.276 689.629 615.789 689.63H792.56C794.075 689.63 795.569 689.99 796.919 690.681C798.268 691.371 799.434 692.373 800.32 693.602C801.207 694.831 801.789 696.254 802.018 697.752C802.248 699.25 802.118 700.782 801.639 702.22L757.259 835.53C756.625 837.436 755.406 839.093 753.776 840.267C752.146 841.441 750.188 842.072 748.179 842.07V842.07Z" fill="#FD8369"/>
</svg>
